<?xml version="1.0" standalone="no"?>
<!DOCTYPE svg PUBLIC "-//W3C//DTD SVG 20010904//EN"
 "http://www.w3.org/TR/2001/REC-SVG-20010904/DTD/svg10.dtd">
<svg version="1.0" xmlns="http://www.w3.org/2000/svg"
 width="100.000000pt" height="100.000000pt" viewBox="0 0 100.000000 100.000000"
 preserveAspectRatio="xMidYMid meet">

<g transform="translate(0.000000,100.000000) scale(0.100000,-0.100000)"
fill="#000000" stroke="none">
<path d="M689 801 c-8 -12 -19 -17 -33 -13 -12 3 -19 2 -16 -1 13 -14 37 -10
58 11 12 12 18 22 12 22 -5 0 -15 -8 -21 -19z"/>
<path d="M763 808 c10 -7 19 -23 20 -35 1 -18 6 -21 24 -17 16 4 25 1 29 -10
3 -9 13 -16 21 -16 11 0 7 6 -10 20 -14 11 -31 20 -39 20 -7 0 -18 10 -23 22
-6 12 -17 24 -25 26 -10 3 -10 0 3 -10z"/>
<path d="M599 773 c-13 -17 -13 -17 6 -3 11 8 22 16 24 17 2 2 0 3 -6 3 -6 0
-17 -8 -24 -17z"/>
<path d="M566 729 c-11 -11 -17 -21 -14 -24 2 -3 13 4 23 15 24 26 16 33 -9 9z"/>
<path d="M888 720 c15 -18 16 -52 0 -68 -7 -7 -39 -12 -75 -12 -51 0 -64 3
-73 19 -16 31 -62 35 -120 10 -44 -19 -53 -20 -61 -8 -5 9 -9 10 -9 2 0 -6 5
-15 10 -18 7 -4 6 -13 -1 -27 -6 -11 -9 -33 -7 -49 3 -18 -1 -34 -9 -41 -11
-9 -31 5 -98 72 -70 70 -86 81 -99 71 -21 -18 -29 -63 -16 -97 6 -16 34 -53
63 -82 l52 -53 -67 -66 c-76 -73 -86 -105 -43 -125 24 -11 31 -7 110 72 l84
83 53 -59 c103 -114 102 -113 139 -94 12 7 19 21 19 38 0 22 -17 43 -80 101
-66 60 -79 76 -69 87 8 9 22 13 38 9 53 -11 121 59 121 125 0 18 6 20 63 20
49 0 68 4 80 18 22 24 22 56 0 73 -15 11 -16 11 -5 -1z m-156 -75 c9 -19 7
-34 -7 -70 -20 -54 -53 -80 -93 -72 -17 3 -33 0 -44 -10 -15 -13 -20 -13 -33
-3 -14 12 -14 15 1 31 10 11 14 27 11 40 -14 53 45 109 116 109 30 0 40 -5 49
-25z m-252 -100 c106 -106 113 -116 98 -131 -10 -10 -21 -13 -30 -8 -7 5 -22
7 -33 6 -14 -2 -44 21 -98 76 -62 64 -77 86 -77 110 0 34 9 62 19 62 3 0 58
-52 121 -115z m0 -141 c11 -13 4 -24 -51 -80 -67 -68 -79 -73 -99 -48 -11 13
-4 24 51 80 67 68 79 73 99 48z m243 -101 c9 -15 -8 -43 -27 -43 -6 0 -38 27
-71 60 -58 58 -58 60 -41 79 19 20 19 20 75 -31 31 -28 60 -57 64 -65z"/>
<path d="M710 645 c0 -5 5 -17 10 -25 5 -8 10 -10 10 -5 0 6 -5 17 -10 25 -5
8 -10 11 -10 5z"/>
<path d="M706 573 c-6 -14 -5 -15 5 -6 7 7 10 15 7 18 -3 3 -9 -2 -12 -12z"/>
<path d="M580 562 c0 -14 45 -52 61 -52 8 0 24 7 35 15 17 13 16 13 -14 2 -32
-11 -35 -10 -58 16 -13 15 -24 24 -24 19z"/>
<path d="M351 609 c-1 -14 6 -34 15 -45 8 -10 12 -13 8 -5 -4 8 -11 28 -15 45
-6 29 -7 29 -8 5z"/>
<path d="M455 470 c27 -27 51 -50 54 -50 3 0 -17 23 -44 50 -27 28 -51 50 -54
50 -3 0 17 -22 44 -50z"/>
<path d="M429 353 l-24 -28 28 24 c25 23 32 31 24 31 -2 0 -14 -12 -28 -27z"/>
<path d="M665 300 c10 -11 20 -20 23 -20 3 0 -3 9 -13 20 -10 11 -20 20 -23
20 -3 0 3 -9 13 -20z"/>
<path d="M174 505 c-3 -8 -26 -24 -50 -36 -46 -24 -58 -41 -49 -70 8 -23 39
-32 91 -26 35 3 34 4 -12 5 -55 2 -81 20 -70 48 3 9 15 18 26 21 11 3 20 9 20
14 0 5 8 9 18 9 9 0 23 9 30 20 13 22 58 27 65 8 2 -7 16 -13 32 -13 17 0 32
-7 39 -20 6 -11 18 -25 26 -32 21 -17 2 -46 -36 -54 l-29 -7 27 -1 c28 -1 58
21 58 43 0 11 -11 27 -51 74 -7 8 -21 11 -34 8 -15 -4 -25 -1 -29 9 -7 20 -65
20 -72 0z"/>
</g>
</svg>
