<?xml version="1.0" encoding="UTF-8"?>
<svg version="1.1" xmlns="http://www.w3.org/2000/svg" width="100" height="100">
<path d="M0 0 C1.59931002 0.31721852 3.2040105 0.6082011 4.8125 0.875 C7.12890625 1.33203125 7.12890625 1.33203125 9 2 C10.25 4.5625 10.25 4.5625 11 7 C13.31850007 7.61432869 13.31850007 7.61432869 16 8 C21.2 11.2 21.2 11.2 23 13 C23.30133118 15.86264617 23.44642032 17.4047729 21.6875 19.75 C20 21 20 21 17 22 C17.49371094 22.68835938 17.98742187 23.37671875 18.49609375 24.0859375 C20.29712032 27.57571884 20.24600382 29.73113842 20.0625 33.625 C19.72998119 38.63725491 19.72998119 38.63725491 22 43 C22 43.99 22 44.98 22 46 C22.66 46.33 23.32 46.66 24 47 C24 47.66 24 48.32 24 49 C23.34 49 22.68 49 22 49 C21.938125 49.721875 21.87625 50.44375 21.8125 51.1875 C20.68700289 55.08345152 19.2437025 56.56722313 16 59 C13.6832016 59.41710631 11.4312098 59.56284424 9.08203125 59.69140625 C6.07669703 60.13684978 4.86531304 61.7042301 3 64 C0.35559361 64.8814688 -1.28060752 65.16174818 -4 65.1875 C-4.680625 65.20167969 -5.36125 65.21585937 -6.0625 65.23046875 C-8 65 -8 65 -11 63 C-14.41001856 63.3300018 -16.34938789 64.9479132 -19 67 C-24.50398334 68.83466111 -30.8712235 69.0940493 -36.390625 67.1640625 C-41.44981227 64.28689111 -44.69141201 60.3197897 -47 55 C-47.60712746 52.59867497 -47.84455232 50.48716291 -48 48 C-52.29 47.67 -56.58 47.34 -61 47 C-61.66 45.35 -62.32 43.7 -63 42 C-62.1875 40.1875 -62.1875 40.1875 -61 38 C-60.8453125 36.0509375 -60.8453125 36.0509375 -60.6875 34.0625 C-60.33287895 30.60655663 -59.96915657 29.96185155 -57.625 27.0625 C-55 25 -55 25 -52 24 C-50.76212759 22.26853795 -50.76212759 22.26853795 -49.6875 20.1875 C-47.30900633 16.24922265 -45.24002758 14.0384748 -41 12 C-38.60574876 11.60560587 -36.27933901 11.37899969 -33.85546875 11.2734375 C-33.24316406 11.18320312 -32.63085938 11.09296875 -32 11 C-31.67 10.34 -31.34 9.68 -31 9 C-32.32 8.34 -33.64 7.68 -35 7 C-35 6.67 -35 6.34 -35 6 C-32.69 6 -30.38 6 -28 6 C-27.7215625 5.13375 -27.7215625 5.13375 -27.4375 4.25 C-21.29294591 -5.36756293 -8.87471574 -4.12040374 0 0 Z " fill="#C5E7E0" transform="translate(69,16)"/>
<path d="M0 0 C3.70293685 -0.33663062 5.39534381 -0.47736015 8.375 1.875 C10 4 10 4 10 6 C10.70125 6.0825 11.4025 6.165 12.125 6.25 C15.94204588 7.2457511 19.19159449 9.19159449 22 12 C22.28139208 14.67322478 22.41541276 16.35633846 20.93359375 18.65234375 C17.96592838 20.72071658 15.37028264 20.28542062 11.8125 20.1875 C9.90404297 20.14689453 9.90404297 20.14689453 7.95703125 20.10546875 C6.49330078 20.05326172 6.49330078 20.05326172 5 20 C5.05414063 21.38638672 5.05414063 21.38638672 5.109375 22.80078125 C4.94212171 27.69293985 2.50163293 30.44658662 -0.8125 33.875 C-3.9101058 35.46805441 -6.57652826 35.19750798 -10 35 C-10.33309213 37.94862812 -10.33309213 37.94862812 -8.71484375 39.4387207 C-8.12832031 39.92945068 -7.54179688 40.42018066 -6.9375 40.92578125 C-6.30585937 41.47556641 -5.67421875 42.02535156 -5.0234375 42.59179688 C-3.68024521 43.73402893 -2.33130142 44.86953367 -0.9765625 45.99804688 C3.85432336 50.23246622 3.85432336 50.23246622 4.625 54.29296875 C4 57 4 57 1 59 C-1.76859491 59.03301561 -3.39516457 58.50612629 -5.52587891 56.72314453 C-7.18786341 55.05400291 -8.756263 53.33052138 -10.3125 51.5625 C-10.86228516 50.96373047 -11.41207031 50.36496094 -11.97851562 49.74804688 C-16 45.28694682 -16 45.28694682 -16 43 C-20.95699851 47.12010266 -25.29757748 51.30308967 -29.26171875 56.3984375 C-31.48623754 58.44799414 -33.00136885 58.82055436 -36 59 C-36.99 58.34 -37.98 57.68 -39 57 C-39 53.12520575 -38.91435695 51.0066127 -36.2578125 48.08203125 C-34.21431965 46.32672329 -32.11760266 44.66441921 -30 43 C-28.98432544 42.0159242 -27.97823466 41.0213016 -27 40 C-28.38441116 36.84354256 -29.98713696 34.84249944 -32.5 32.5 C-35.9674022 29.26767591 -37.81369113 26.7885652 -38.3125 22 C-37.96867203 18.69925146 -37.21826259 17.40311781 -35 15 C-32.06769807 16.32120828 -30.01335101 17.74638197 -27.765625 20.0390625 C-26.90517578 20.90917969 -26.90517578 20.90917969 -26.02734375 21.796875 C-25.44082031 22.40015625 -24.85429688 23.0034375 -24.25 23.625 C-23.64800781 24.23601563 -23.04601562 24.84703125 -22.42578125 25.4765625 C-20.94594695 26.97988624 -19.47235324 28.48934856 -18 30 C-17.01 29.67 -16.02 29.34 -15 29 C-15.020625 27.906875 -15.04125 26.81375 -15.0625 25.6875 C-15 22 -15 22 -14 19 C-14.66 18.01 -15.32 17.02 -16 16 C-15.625 13.3125 -15.625 13.3125 -15 11 C-14.01 10.67 -13.02 10.34 -12 10 C-11.67 8.35 -11.34 6.7 -11 5 C-10.34 5.33 -9.68 5.66 -9 6 C-9.33 7.32 -9.66 8.64 -10 10 C-9.01 10.33 -8.02 10.66 -7 11 C-7.33 11.66 -7.66 12.32 -8 13 C-10.475 12.505 -10.475 12.505 -13 12 C-13 13.65 -13 15.3 -13 17 C-12.360625 16.690625 -11.72125 16.38125 -11.0625 16.0625 C-7.07416091 14.67879052 -3.234194 13.92100384 1 14 C3.5625 15.3125 3.5625 15.3125 5 17 C5 17.66 5 18.32 5 19 C7.1462026 18.85970581 9.29196218 18.71261836 11.4375 18.5625 C13.22994141 18.44068359 13.22994141 18.44068359 15.05859375 18.31640625 C17.88570244 18.32343886 17.88570244 18.32343886 19 17 C19.04063832 15.33382885 19.042721 13.66611905 19 12 C18.195625 11.71125 17.39125 11.4225 16.5625 11.125 C14 10 14 10 13 8 C11.35 8 9.7 8 8 8 C7.34 6.35 6.68 4.7 6 3 C3.69 3 1.38 3 -1 3 C-0.67 2.01 -0.34 1.02 0 0 Z " fill="#553D3A" transform="translate(70,17)"/>
<path d="M0 0 C2 2 2 2 2 6 C3.65 5.67 5.3 5.34 7 5 C7.33 5.99 7.66 6.98 8 8 C8.804375 8.144375 9.60875 8.28875 10.4375 8.4375 C13 9 13 9 14 10 C14.1875 12.4375 14.1875 12.4375 14 15 C11.23684284 17.76315716 9.47763277 17.33171199 5.625 17.375 C4.48289062 17.40335938 3.34078125 17.43171875 2.1640625 17.4609375 C-1.63826983 16.90701748 -2.43374561 15.71151407 -5 13 C-7.20047793 12.65697999 -7.20047793 12.65697999 -9.4375 13.125 C-10.21867187 13.25003906 -10.99984375 13.37507813 -11.8046875 13.50390625 C-14.34340388 14.07760194 -16.65635955 14.86598043 -19 16 C-20 15 -20 15 -20.0625 12.4375 C-20.041875 11.633125 -20.02125 10.82875 -20 10 C-18.35 9.67 -16.7 9.34 -15 9 C-15.33 8.67 -15.66 8.34 -16 8 C-15.71395102 6.32457024 -15.38218767 4.65614657 -15 3 C-12.36 3.33 -9.72 3.66 -7 4 C-7 3.01 -7 2.02 -7 1 C-4.48718205 -0.25640898 -2.78302919 -0.20872719 0 0 Z " fill="#F5F3E7" transform="translate(76,19)"/>
<path d="M0 0 C2.25113935 3.37670902 2.2342048 4.9884398 1.59375 8.92578125 C0.50054595 12.7448033 -0.93944629 14.39527344 -4 17 C-6.75727373 17.41577937 -9.18562984 17.17869017 -12 17 C-14.40557853 17.86265968 -14.40557853 17.86265968 -16 19 C-16.66 18.01 -17.32 17.02 -18 16 C-17.34 15.34 -16.68 14.68 -16 14 C-16.04125 12.906875 -16.0825 11.81375 -16.125 10.6875 C-15.97572627 6.28392485 -15.16007057 4.98925595 -12 2 C-8.05817422 -0.23725247 -4.48080925 -0.42271785 0 0 Z " fill="#9F9EC7" transform="translate(72,33)"/>
<path d="M0 0 C3.66752005 1.5391801 5.98580573 3.75485452 8.765625 6.5703125 C9.65507813 7.46621094 10.54453125 8.36210938 11.4609375 9.28515625 C12.38132812 10.22230469 13.30171875 11.15945312 14.25 12.125 C15.19484856 13.07988637 16.14015633 14.03431859 17.0859375 14.98828125 C19.39518338 17.32109087 21.69963203 19.65844086 24 22 C23.34 23.32 22.68 24.64 22 26 C15.62677081 25.88028188 12.79446539 24.59133507 8.36914062 20.03320312 C7.77294922 19.38287109 7.17675781 18.73253906 6.5625 18.0625 C5.93923828 17.41603516 5.31597656 16.76957031 4.67382812 16.10351562 C-1.14340387 10.00776545 -1.14340387 10.00776545 -1.125 4.9375 C-1 1 -1 1 0 0 Z " fill="#9F9EC6" transform="translate(35,34)"/>
<path d="M0 0 C3.70293685 -0.33663062 5.39534381 -0.47736015 8.375 1.875 C10 4 10 4 10 6 C10.70125 6.0825 11.4025 6.165 12.125 6.25 C15.94204588 7.2457511 19.19159449 9.19159449 22 12 C22.28139208 14.67322478 22.41541276 16.35633846 20.93359375 18.65234375 C17.96592838 20.72071658 15.37028264 20.28542062 11.8125 20.1875 C9.90404297 20.14689453 9.90404297 20.14689453 7.95703125 20.10546875 C6.49330078 20.05326172 6.49330078 20.05326172 5 20 C5.05414063 21.38638672 5.05414063 21.38638672 5.109375 22.80078125 C4.94147594 27.71182876 2.51030007 30.53841929 -0.9375 33.875 C-3.44940739 35.2451313 -5.18027277 35.23497727 -8 35 C-8.33 34.34 -8.66 33.68 -9 33 C-7.39125 32.9071875 -7.39125 32.9071875 -5.75 32.8125 C-1.97047411 32.30829914 -1.97047411 32.30829914 0.375 29.9375 C2.49672168 26.10208004 2.78487678 23.37417212 3 19 C2.505 18.01 2.505 18.01 2 17 C-3.23890086 16.68566595 -6.52833673 17.19221144 -11 20 C-13.32935324 22.89310465 -13.32935324 22.89310465 -13 26.5625 C-13 27.696875 -13 28.83125 -13 30 C-15 32 -15 32 -17.20703125 32.03515625 C-21.34495786 30.50151912 -23.7219212 27.62474154 -26.6875 24.4375 C-27.83274908 23.22361224 -28.98228124 22.01374643 -30.13671875 20.80859375 C-30.63905029 20.27032959 -31.14138184 19.73206543 -31.65893555 19.17749023 C-32.95304296 17.78006942 -32.95304296 17.78006942 -35 18 C-35.66 20.31 -36.32 22.62 -37 25 C-37.33 25 -37.66 25 -38 25 C-38.36923077 19.58461538 -38.36923077 19.58461538 -36.5 16.625 C-36.005 16.08875 -35.51 15.5525 -35 15 C-32.06769807 16.32120828 -30.01335101 17.74638197 -27.765625 20.0390625 C-26.90517578 20.90917969 -26.90517578 20.90917969 -26.02734375 21.796875 C-25.44082031 22.40015625 -24.85429688 23.0034375 -24.25 23.625 C-23.64800781 24.23601563 -23.04601562 24.84703125 -22.42578125 25.4765625 C-20.94594695 26.97988624 -19.47235324 28.48934856 -18 30 C-17.01 29.67 -16.02 29.34 -15 29 C-15.020625 27.906875 -15.04125 26.81375 -15.0625 25.6875 C-15 22 -15 22 -14 19 C-14.66 18.01 -15.32 17.02 -16 16 C-15.625 13.3125 -15.625 13.3125 -15 11 C-14.01 10.67 -13.02 10.34 -12 10 C-11.67 8.35 -11.34 6.7 -11 5 C-10.34 5.33 -9.68 5.66 -9 6 C-9.33 7.32 -9.66 8.64 -10 10 C-9.01 10.33 -8.02 10.66 -7 11 C-7.33 11.66 -7.66 12.32 -8 13 C-10.475 12.505 -10.475 12.505 -13 12 C-13 13.65 -13 15.3 -13 17 C-12.360625 16.690625 -11.72125 16.38125 -11.0625 16.0625 C-7.07416091 14.67879052 -3.234194 13.92100384 1 14 C3.5625 15.3125 3.5625 15.3125 5 17 C5 17.66 5 18.32 5 19 C7.1462026 18.85970581 9.29196218 18.71261836 11.4375 18.5625 C13.22994141 18.44068359 13.22994141 18.44068359 15.05859375 18.31640625 C17.88570244 18.32343886 17.88570244 18.32343886 19 17 C19.04063832 15.33382885 19.042721 13.66611905 19 12 C18.195625 11.71125 17.39125 11.4225 16.5625 11.125 C14 10 14 10 13 8 C11.35 8 9.7 8 8 8 C7.34 6.35 6.68 4.7 6 3 C3.69 3 1.38 3 -1 3 C-0.67 2.01 -0.34 1.02 0 0 Z " fill="#6A5857" transform="translate(70,17)"/>
<path d="M0 0 C4.75 0.75 4.75 0.75 7 3 C9.10820797 2.6814823 9.10820797 2.6814823 11 2 C11.66 3.32 12.32 4.64 13 6 C12.67 6.33 12.34 6.66 12 7 C13.32 7.33 14.64 7.66 16 8 C15.125 11.875 15.125 11.875 14 13 C10.19411856 13.25208722 6.37574544 13.18522344 2.5625 13.1875 C0.94891602 13.20586914 0.94891602 13.20586914 -0.69726562 13.22460938 C-1.72400391 13.22654297 -2.75074219 13.22847656 -3.80859375 13.23046875 C-5.22869751 13.23663208 -5.22869751 13.23663208 -6.67749023 13.24291992 C-9 13 -9 13 -11 11 C-10.8125 8.9375 -10.8125 8.9375 -10 7 C-9.01 6.67 -8.02 6.34 -7 6 C-6.67 5.34 -6.34 4.68 -6 4 C-5.01 4 -4.02 4 -3 4 C-1.29467677 2.05990478 -1.29467677 2.05990478 0 0 Z " fill="#F7F5E9" transform="translate(19,49)"/>
<path d="M0 0 C3.70293685 -0.33663062 5.39534381 -0.47736015 8.375 1.875 C10 4 10 4 10 6 C10.70125 6.0825 11.4025 6.165 12.125 6.25 C15.94204588 7.2457511 19.19159449 9.19159449 22 12 C22.28139208 14.67322478 22.41541276 16.35633846 20.93359375 18.65234375 C17.96592838 20.72071658 15.37028264 20.28542062 11.8125 20.1875 C9.90404297 20.14689453 9.90404297 20.14689453 7.95703125 20.10546875 C6.49330078 20.05326172 6.49330078 20.05326172 5 20 C5.03609375 20.92425781 5.0721875 21.84851563 5.109375 22.80078125 C4.94147594 27.71182876 2.51030007 30.53841929 -0.9375 33.875 C-3.44940739 35.2451313 -5.18027277 35.23497727 -8 35 C-8.33 34.34 -8.66 33.68 -9 33 C-7.39125 32.9071875 -7.39125 32.9071875 -5.75 32.8125 C-1.98568541 32.31042918 -1.98568541 32.31042918 0.3125 30 C2.49185719 26.12558721 3.27879447 22.35570182 4 18 C4.99902344 18.01160156 5.99804688 18.02320312 7.02734375 18.03515625 C8.31769531 18.04417969 9.60804687 18.05320312 10.9375 18.0625 C12.22527344 18.07410156 13.51304688 18.08570312 14.83984375 18.09765625 C17.86298403 18.36532549 17.86298403 18.36532549 19 17 C19.04063832 15.33382885 19.042721 13.66611905 19 12 C18.195625 11.71125 17.39125 11.4225 16.5625 11.125 C14 10 14 10 13 8 C11.35 8 9.7 8 8 8 C7.34 6.35 6.68 4.7 6 3 C3.69 3 1.38 3 -1 3 C-0.67 2.01 -0.34 1.02 0 0 Z " fill="#563F3E" transform="translate(70,17)"/>
<path d="M0 0 C0.55300781 0.26039062 1.10601562 0.52078125 1.67578125 0.7890625 C1.67578125 5.23221755 0.95451414 6.04551568 -2.0390625 9.09960938 C-2.54566406 9.59525391 -3.05226563 10.09089844 -3.57421875 10.6015625 C-4.31091797 11.3740332 -4.31091797 11.3740332 -5.0625 12.16210938 C-6.52734375 13.62109375 -6.52734375 13.62109375 -9.32421875 15.7890625 C-11.68359375 15.61328125 -11.68359375 15.61328125 -13.32421875 14.7890625 C-12.87979719 9.96142443 -10.88664557 7.78404799 -7.51171875 4.4140625 C-6.63902344 3.51945312 -5.76632813 2.62484375 -4.8671875 1.703125 C-2.32421875 -0.2109375 -2.32421875 -0.2109375 0 0 Z " fill="#DBC860" transform="translate(46.32421875,58.2109375)"/>
<path d="M0 0 C0.67095703 0.58007812 0.67095703 0.58007812 1.35546875 1.171875 C1.96003906 1.69265625 2.56460938 2.2134375 3.1875 2.75 C3.82300781 3.29914062 4.45851563 3.84828125 5.11328125 4.4140625 C6.65368747 5.70889671 8.25673724 6.92889274 9.875 8.125 C12 10 12 10 12.9375 12.125 C12.958125 12.74375 12.97875 13.3625 13 14 C12.34 14.66 11.68 15.32 11 16 C6.74541334 15.86126348 4.54403586 12.84182675 1.75 9.9375 C0.85796875 9.01839844 -0.0340625 8.09929687 -0.953125 7.15234375 C-1.62859375 6.44207031 -2.3040625 5.73179688 -3 5 C-1.125 1.125 -1.125 1.125 0 0 Z " fill="#E0CE62" transform="translate(60,58)"/>
<path d="M0 0 C3.33235005 1.49802892 5.95957916 3.39729223 8.75 5.75 C9.54921875 6.40484375 10.3484375 7.0596875 11.171875 7.734375 C13 10 13 10 13.453125 13.140625 C13.30359375 14.08421875 13.1540625 15.0278125 13 16 C10 18 10 18 7.55078125 17.87890625 C4.43291374 16.80460274 3.24810582 15.48295425 1.1875 12.9375 C0.28064453 11.83728516 0.28064453 11.83728516 -0.64453125 10.71484375 C-1.09183594 10.14894531 -1.53914063 9.58304688 -2 9 C-1.67 8.34 -1.34 7.68 -1 7 C-0.46890625 7.58910156 0.0621875 8.17820312 0.609375 8.78515625 C1.31578125 9.53667969 2.0221875 10.28820312 2.75 11.0625 C3.44609375 11.81660156 4.1421875 12.57070312 4.859375 13.34765625 C6.85289314 15.28236888 6.85289314 15.28236888 9.265625 14.74609375 C9.83796875 14.49988281 10.4103125 14.25367187 11 14 C11 12.68 11 11.36 11 10 C10.41734375 9.74347656 9.8346875 9.48695312 9.234375 9.22265625 C6.80289161 7.89214174 5.18264447 6.41556987 3.25 4.4375 C2.63640625 3.81746094 2.0228125 3.19742188 1.390625 2.55859375 C0 1 0 1 0 0 Z " fill="#604A3D" transform="translate(61,58)"/>
<path d="M0 0 C0.66 0.99 1.32 1.98 2 3 C-0.80910683 7.21366025 -0.80910683 7.21366025 -3 9 C-5.7553729 9.45831945 -8.18018235 9.17903604 -11 9 C-13.40557853 9.86265968 -13.40557853 9.86265968 -15 11 C-15.66 10.01 -16.32 9.02 -17 8 C-15.68 6.02 -14.36 4.04 -13 2 C-11.9171875 3.0209375 -11.9171875 3.0209375 -10.8125 4.0625 C-8.20866355 6.23471757 -8.20866355 6.23471757 -5.375 6.0625 C-2.27820404 4.67709128 -1.45954978 2.99591796 0 0 Z " fill="#9794B9" transform="translate(71,41)"/>
<path d="M0 0 C1.32 0.66 2.64 1.32 4 2 C4 3.32 4 4.64 4 6 C5.65 6.33 7.3 6.66 9 7 C9 7.33 9 7.66 9 8 C5.7 8 2.4 8 -1 8 C-1 7.34 -1 6.68 -1 6 C-3.97 6 -6.94 6 -10 6 C-10 5.67 -10 5.34 -10 5 C-7.69 5 -5.38 5 -3 5 C-2.690625 4.360625 -2.38125 3.72125 -2.0625 3.0625 C-1 1 -1 1 0 0 Z " fill="#ECF9F6" transform="translate(44,17)"/>
<path d="M0 0 C0 0.99 0 1.98 0 3 C-0.99 3.33 -1.98 3.66 -3 4 C-2.67 5.32 -2.34 6.64 -2 8 C2.95 8.33 7.9 8.66 13 9 C13 9.33 13 9.66 13 10 C7.39 10 1.78 10 -4 10 C-6 5 -6 5 -5 2 C-2.4375 0.8125 -2.4375 0.8125 0 0 Z " fill="#67534E" transform="translate(12,53)"/>
<path d="M0 0 C1.98 0 3.96 0 6 0 C6 0.99 6 1.98 6 3 C7.65 3.33 9.3 3.66 11 4 C11 4.33 11 4.66 11 5 C7.7 5 4.4 5 1 5 C1 4.34 1 3.68 1 3 C-1.97 3 -4.94 3 -8 3 C-8 2.67 -8 2.34 -8 2 C-5.36 1.67 -2.72 1.34 0 1 C0 0.67 0 0.34 0 0 Z " fill="#F2FAF9" transform="translate(82,60)"/>
<path d="M0 0 C0.99 0.33 1.98 0.66 3 1 C2.67 2.65 2.34 4.3 2 6 C5.465 5.505 5.465 5.505 9 5 C7.3125 7.0625 7.3125 7.0625 5 9 C0.7 8.7 0.7 8.7 -1 7 C-0.71269945 4.66055264 -0.38063221 2.3260857 0 0 Z " fill="#675343" transform="translate(32,67)"/>
<path d="M0 0 C0.66 0.99 1.32 1.98 2 3 C-0.99481865 7.22797927 -0.99481865 7.22797927 -3 9 C-6.3125 9.375 -6.3125 9.375 -9 9 C-9.33 8.01 -9.66 7.02 -10 6 C-8.906875 5.938125 -7.81375 5.87625 -6.6875 5.8125 C-2.85667284 5.3867767 -2.85667284 5.3867767 -1.0625 2.4375 C-0.711875 1.633125 -0.36125 0.82875 0 0 Z " fill="#8C85A4" transform="translate(71,41)"/>
<path d="M0 0 C3.61897173 -0.32899743 5.39503139 -0.44576634 8.375 1.75 C10 4 10 4 10 8 C9.34 8 8.68 8 8 8 C7.34 6.35 6.68 4.7 6 3 C3.69 3 1.38 3 -1 3 C-0.67 2.01 -0.34 1.02 0 0 Z " fill="#664C48" transform="translate(70,17)"/>
<path d="M0 0 C7.48291572 6.15034169 7.48291572 6.15034169 10 10 C6.7451198 9.41978222 5.06347592 8.47352859 2.75 6.125 C2.22921875 5.61195312 1.7084375 5.09890625 1.171875 4.5703125 C0 3 0 3 0 0 Z " fill="#8C85A4" transform="translate(41,48)"/>
<path d="M0 0 C1.32 0.33 2.64 0.66 4 1 C4 1.66 4 2.32 4 3 C5.32 3.66 6.64 4.32 8 5 C7.67 5.66 7.34 6.32 7 7 C3.42895561 5.12050295 1.45255699 3.82946843 0 0 Z " fill="#C7B459" transform="translate(57,61)"/>
<path d="M0 0 C1.12894876 0.93274109 2.25300876 1.87140122 3.375 2.8125 C4.00148438 3.33457031 4.62796875 3.85664062 5.2734375 4.39453125 C7 6 7 6 9 9 C6 9 6 9 4.39453125 7.5390625 C3.61142578 6.59160156 3.61142578 6.59160156 2.8125 5.625 C2.28269531 4.99851562 1.75289062 4.37203125 1.20703125 3.7265625 C0 2 0 2 0 0 Z " fill="#624C3F" transform="translate(59,65)"/>
<path d="M0 0 C0.33 0 0.66 0 1 0 C1.433125 1.6396875 1.433125 1.6396875 1.875 3.3125 C2.81893204 7.04013845 2.81893204 7.04013845 5 10 C3.125 9.75 3.125 9.75 1 9 C-0.87380446 6.50159405 -1.05001932 5.36680834 -0.625 2.25 C-0.41875 1.5075 -0.2125 0.765 0 0 Z " fill="#877F9C" transform="translate(35,37)"/>
<path d="M0 0 C1.32 0.66 2.64 1.32 4 2 C4 2.66 4 3.32 4 4 C2.02 4 0.04 4 -2 4 C-1.34 2.68 -0.68 1.36 0 0 Z " fill="#E0F4F1" transform="translate(44,17)"/>
</svg>